<mxfile host="app.diagrams.net" modified="2023-05-25T07:55:38.848Z" agent="Mozilla/5.0 (Macintosh; Intel Mac OS X 10_15_7) AppleWebKit/537.36 (KHTML, like Gecko) Chrome/113.0.0.0 Safari/537.36" etag="MyTEJrniW7BT1XOOwjWS" version="21.3.3" type="github">
  <diagram id="ZTbM8DwjV0BJ23-4vNRd" name="Page-1">
    <mxGraphModel dx="1762" dy="703" grid="1" gridSize="10" guides="1" tooltips="1" connect="1" arrows="1" fold="1" page="1" pageScale="1" pageWidth="3300" pageHeight="4681" math="0" shadow="0">
      <root>
        <mxCell id="0" />
        <mxCell id="1" parent="0" />
        <mxCell id="XTAPi4LdTYdcreZ4F3mr-39" style="edgeStyle=orthogonalEdgeStyle;rounded=0;orthogonalLoop=1;jettySize=auto;html=1;entryX=-0.007;entryY=0.532;entryDx=0;entryDy=0;entryPerimeter=0;fontSize=14;" parent="1" source="XTAPi4LdTYdcreZ4F3mr-1" target="XTAPi4LdTYdcreZ4F3mr-7" edge="1">
          <mxGeometry relative="1" as="geometry">
            <Array as="points">
              <mxPoint x="1040" y="851" />
            </Array>
          </mxGeometry>
        </mxCell>
        <mxCell id="XTAPi4LdTYdcreZ4F3mr-1" value="" style="sketch=0;points=[[0,0,0],[0.25,0,0],[0.5,0,0],[0.75,0,0],[1,0,0],[0,1,0],[0.25,1,0],[0.5,1,0],[0.75,1,0],[1,1,0],[0,0.25,0],[0,0.5,0],[0,0.75,0],[1,0.25,0],[1,0.5,0],[1,0.75,0]];outlineConnect=0;fontColor=#232F3E;gradientColor=#945DF2;gradientDirection=north;fillColor=#5A30B5;strokeColor=#ffffff;dashed=0;verticalLabelPosition=bottom;verticalAlign=top;align=center;html=1;fontSize=12;fontStyle=0;aspect=fixed;shape=mxgraph.aws4.resourceIcon;resIcon=mxgraph.aws4.api_gateway;" parent="1" vertex="1">
          <mxGeometry x="1000" y="950" width="78" height="78" as="geometry" />
        </mxCell>
        <mxCell id="XTAPi4LdTYdcreZ4F3mr-42" style="edgeStyle=orthogonalEdgeStyle;rounded=0;orthogonalLoop=1;jettySize=auto;html=1;entryX=0.5;entryY=0;entryDx=0;entryDy=0;entryPerimeter=0;fontSize=14;" parent="1" source="XTAPi4LdTYdcreZ4F3mr-7" target="XTAPi4LdTYdcreZ4F3mr-9" edge="1">
          <mxGeometry relative="1" as="geometry" />
        </mxCell>
        <mxCell id="XTAPi4LdTYdcreZ4F3mr-7" value="" style="verticalLabelPosition=bottom;verticalAlign=top;html=1;shape=mxgraph.basic.rect;fillColor2=none;strokeWidth=1;size=20;indent=5;fillColor=#fff2cc;strokeColor=#d6b656;" parent="1" vertex="1">
          <mxGeometry x="1160" y="819" width="120" height="60" as="geometry" />
        </mxCell>
        <mxCell id="XTAPi4LdTYdcreZ4F3mr-55" style="edgeStyle=orthogonalEdgeStyle;rounded=0;orthogonalLoop=1;jettySize=auto;html=1;entryX=0.5;entryY=1;entryDx=0;entryDy=0;entryPerimeter=0;fontSize=14;" parent="1" source="XTAPi4LdTYdcreZ4F3mr-8" target="XTAPi4LdTYdcreZ4F3mr-1" edge="1">
          <mxGeometry relative="1" as="geometry" />
        </mxCell>
        <mxCell id="XTAPi4LdTYdcreZ4F3mr-8" value="" style="verticalLabelPosition=bottom;verticalAlign=top;html=1;shape=mxgraph.basic.rect;fillColor2=none;strokeWidth=1;size=20;indent=5;fillColor=#d5e8d4;strokeColor=#82b366;" parent="1" vertex="1">
          <mxGeometry x="1160" y="1080" width="120" height="60" as="geometry" />
        </mxCell>
        <mxCell id="XTAPi4LdTYdcreZ4F3mr-24" style="edgeStyle=orthogonalEdgeStyle;rounded=0;orthogonalLoop=1;jettySize=auto;html=1;entryX=0;entryY=0.5;entryDx=0;entryDy=0;entryPerimeter=0;" parent="1" source="XTAPi4LdTYdcreZ4F3mr-9" target="XTAPi4LdTYdcreZ4F3mr-10" edge="1">
          <mxGeometry relative="1" as="geometry" />
        </mxCell>
        <mxCell id="XTAPi4LdTYdcreZ4F3mr-54" style="edgeStyle=orthogonalEdgeStyle;rounded=0;orthogonalLoop=1;jettySize=auto;html=1;entryX=0.993;entryY=0.673;entryDx=0;entryDy=0;entryPerimeter=0;fontSize=14;" parent="1" source="XTAPi4LdTYdcreZ4F3mr-9" target="XTAPi4LdTYdcreZ4F3mr-8" edge="1">
          <mxGeometry relative="1" as="geometry">
            <Array as="points">
              <mxPoint x="1399" y="1120" />
            </Array>
          </mxGeometry>
        </mxCell>
        <mxCell id="XTAPi4LdTYdcreZ4F3mr-9" value="" style="sketch=0;points=[[0,0,0],[0.25,0,0],[0.5,0,0],[0.75,0,0],[1,0,0],[0,1,0],[0.25,1,0],[0.5,1,0],[0.75,1,0],[1,1,0],[0,0.25,0],[0,0.5,0],[0,0.75,0],[1,0.25,0],[1,0.5,0],[1,0.75,0]];outlineConnect=0;fontColor=#232F3E;gradientColor=#F78E04;gradientDirection=north;fillColor=#D05C17;strokeColor=#ffffff;dashed=0;verticalLabelPosition=bottom;verticalAlign=top;align=center;html=1;fontSize=12;fontStyle=0;aspect=fixed;shape=mxgraph.aws4.resourceIcon;resIcon=mxgraph.aws4.lambda;" parent="1" vertex="1">
          <mxGeometry x="1360" y="950" width="78" height="78" as="geometry" />
        </mxCell>
        <mxCell id="XTAPi4LdTYdcreZ4F3mr-25" style="edgeStyle=orthogonalEdgeStyle;rounded=0;orthogonalLoop=1;jettySize=auto;html=1;entryX=0;entryY=0.5;entryDx=0;entryDy=0;entryPerimeter=0;" parent="1" source="XTAPi4LdTYdcreZ4F3mr-10" target="XTAPi4LdTYdcreZ4F3mr-14" edge="1">
          <mxGeometry relative="1" as="geometry" />
        </mxCell>
        <mxCell id="XTAPi4LdTYdcreZ4F3mr-10" value="" style="sketch=0;points=[[0,0,0],[0.25,0,0],[0.5,0,0],[0.75,0,0],[1,0,0],[0,1,0],[0.25,1,0],[0.5,1,0],[0.75,1,0],[1,1,0],[0,0.25,0],[0,0.5,0],[0,0.75,0],[1,0.25,0],[1,0.5,0],[1,0.75,0]];outlineConnect=0;fontColor=#232F3E;gradientColor=#FF4F8B;gradientDirection=north;fillColor=#BC1356;strokeColor=#ffffff;dashed=0;verticalLabelPosition=bottom;verticalAlign=top;align=center;html=1;fontSize=12;fontStyle=0;aspect=fixed;shape=mxgraph.aws4.resourceIcon;resIcon=mxgraph.aws4.sqs;" parent="1" vertex="1">
          <mxGeometry x="1572" y="950" width="78" height="78" as="geometry" />
        </mxCell>
        <mxCell id="XTAPi4LdTYdcreZ4F3mr-11" value="" style="sketch=0;points=[[0,0,0],[0.25,0,0],[0.5,0,0],[0.75,0,0],[1,0,0],[0,1,0],[0.25,1,0],[0.5,1,0],[0.75,1,0],[1,1,0],[0,0.25,0],[0,0.5,0],[0,0.75,0],[1,0.25,0],[1,0.5,0],[1,0.75,0]];outlineConnect=0;fontColor=#232F3E;gradientColor=#4D72F3;gradientDirection=north;fillColor=#3334B9;strokeColor=#ffffff;dashed=0;verticalLabelPosition=bottom;verticalAlign=top;align=center;html=1;fontSize=12;fontStyle=0;aspect=fixed;shape=mxgraph.aws4.resourceIcon;resIcon=mxgraph.aws4.dynamodb;" parent="1" vertex="1">
          <mxGeometry x="1778" y="790" width="78" height="78" as="geometry" />
        </mxCell>
        <mxCell id="XTAPi4LdTYdcreZ4F3mr-12" value="" style="sketch=0;outlineConnect=0;fontColor=#232F3E;gradientColor=none;fillColor=#BF0816;strokeColor=none;dashed=0;verticalLabelPosition=bottom;verticalAlign=top;align=center;html=1;fontSize=12;fontStyle=0;aspect=fixed;shape=mxgraph.aws4.email;" parent="1" vertex="1">
          <mxGeometry x="1970" y="954.5" width="78" height="69" as="geometry" />
        </mxCell>
        <mxCell id="XTAPi4LdTYdcreZ4F3mr-13" value="" style="verticalLabelPosition=bottom;verticalAlign=top;html=1;shape=mxgraph.basic.rect;fillColor2=none;strokeWidth=1;size=20;indent=5;fillColor=#f8cecc;strokeColor=#b85450;" parent="1" vertex="1">
          <mxGeometry x="1510" y="1240" width="120" height="60" as="geometry" />
        </mxCell>
        <mxCell id="XTAPi4LdTYdcreZ4F3mr-26" style="edgeStyle=orthogonalEdgeStyle;rounded=0;orthogonalLoop=1;jettySize=auto;html=1;entryX=0.5;entryY=1;entryDx=0;entryDy=0;entryPerimeter=0;" parent="1" source="XTAPi4LdTYdcreZ4F3mr-14" target="XTAPi4LdTYdcreZ4F3mr-11" edge="1">
          <mxGeometry relative="1" as="geometry" />
        </mxCell>
        <mxCell id="XTAPi4LdTYdcreZ4F3mr-28" style="edgeStyle=orthogonalEdgeStyle;rounded=0;orthogonalLoop=1;jettySize=auto;html=1;" parent="1" source="XTAPi4LdTYdcreZ4F3mr-14" target="XTAPi4LdTYdcreZ4F3mr-12" edge="1">
          <mxGeometry relative="1" as="geometry" />
        </mxCell>
        <mxCell id="XTAPi4LdTYdcreZ4F3mr-37" style="edgeStyle=orthogonalEdgeStyle;rounded=0;orthogonalLoop=1;jettySize=auto;html=1;entryX=1.007;entryY=0.535;entryDx=0;entryDy=0;entryPerimeter=0;fontSize=14;" parent="1" source="XTAPi4LdTYdcreZ4F3mr-14" target="XTAPi4LdTYdcreZ4F3mr-13" edge="1">
          <mxGeometry relative="1" as="geometry">
            <Array as="points">
              <mxPoint x="1817" y="1272" />
            </Array>
          </mxGeometry>
        </mxCell>
        <mxCell id="XTAPi4LdTYdcreZ4F3mr-14" value="" style="sketch=0;points=[[0,0,0],[0.25,0,0],[0.5,0,0],[0.75,0,0],[1,0,0],[0,1,0],[0.25,1,0],[0.5,1,0],[0.75,1,0],[1,1,0],[0,0.25,0],[0,0.5,0],[0,0.75,0],[1,0.25,0],[1,0.5,0],[1,0.75,0]];outlineConnect=0;fontColor=#232F3E;gradientColor=#F78E04;gradientDirection=north;fillColor=#D05C17;strokeColor=#ffffff;dashed=0;verticalLabelPosition=bottom;verticalAlign=top;align=center;html=1;fontSize=12;fontStyle=0;aspect=fixed;shape=mxgraph.aws4.resourceIcon;resIcon=mxgraph.aws4.lambda;" parent="1" vertex="1">
          <mxGeometry x="1778" y="950" width="78" height="78" as="geometry" />
        </mxCell>
        <mxCell id="XTAPi4LdTYdcreZ4F3mr-33" value="User Request" style="text;html=1;strokeColor=none;fillColor=none;align=center;verticalAlign=middle;whiteSpace=wrap;rounded=0;fontSize=14;fontStyle=1" parent="1" vertex="1">
          <mxGeometry x="1190" y="834" width="60" height="30" as="geometry" />
        </mxCell>
        <mxCell id="XTAPi4LdTYdcreZ4F3mr-34" value="Json Response" style="text;html=1;strokeColor=none;fillColor=none;align=center;verticalAlign=middle;whiteSpace=wrap;rounded=0;fontSize=14;fontStyle=1" parent="1" vertex="1">
          <mxGeometry x="1190" y="1095" width="60" height="30" as="geometry" />
        </mxCell>
        <mxCell id="XTAPi4LdTYdcreZ4F3mr-38" style="edgeStyle=orthogonalEdgeStyle;rounded=0;orthogonalLoop=1;jettySize=auto;html=1;fontSize=14;" parent="1" edge="1">
          <mxGeometry relative="1" as="geometry">
            <mxPoint x="1020" y="1030" as="targetPoint" />
            <mxPoint x="1510" y="1270" as="sourcePoint" />
          </mxGeometry>
        </mxCell>
        <mxCell id="XTAPi4LdTYdcreZ4F3mr-35" value="Status Callback" style="text;html=1;strokeColor=none;fillColor=none;align=center;verticalAlign=middle;whiteSpace=wrap;rounded=0;fontSize=14;fontStyle=1" parent="1" vertex="1">
          <mxGeometry x="1540" y="1255" width="60" height="30" as="geometry" />
        </mxCell>
        <mxCell id="XTAPi4LdTYdcreZ4F3mr-43" value="&lt;b&gt;SQS&lt;/b&gt;" style="text;html=1;strokeColor=none;fillColor=none;align=center;verticalAlign=middle;whiteSpace=wrap;rounded=0;fontSize=14;" parent="1" vertex="1">
          <mxGeometry x="1581" y="1028" width="60" height="30" as="geometry" />
        </mxCell>
        <mxCell id="XTAPi4LdTYdcreZ4F3mr-44" value="SendMessage Lambda" style="text;html=1;strokeColor=none;fillColor=none;align=center;verticalAlign=middle;whiteSpace=wrap;rounded=0;fontSize=14;fontStyle=1" parent="1" vertex="1">
          <mxGeometry x="1260" y="974" width="100" height="30" as="geometry" />
        </mxCell>
        <mxCell id="XTAPi4LdTYdcreZ4F3mr-46" value="SenderWorker Lambda" style="text;html=1;strokeColor=none;fillColor=none;align=center;verticalAlign=middle;whiteSpace=wrap;rounded=0;fontSize=14;fontStyle=1" parent="1" vertex="1">
          <mxGeometry x="1820" y="1040" width="100" height="30" as="geometry" />
        </mxCell>
        <mxCell id="XTAPi4LdTYdcreZ4F3mr-47" value="&lt;b&gt;dynamoDB&lt;/b&gt;" style="text;html=1;strokeColor=none;fillColor=none;align=center;verticalAlign=middle;whiteSpace=wrap;rounded=0;fontSize=14;" parent="1" vertex="1">
          <mxGeometry x="1787" y="760" width="60" height="30" as="geometry" />
        </mxCell>
        <mxCell id="XTAPi4LdTYdcreZ4F3mr-48" value="&lt;b&gt;Email Service&lt;/b&gt;" style="text;html=1;strokeColor=none;fillColor=none;align=center;verticalAlign=middle;whiteSpace=wrap;rounded=0;fontSize=14;" parent="1" vertex="1">
          <mxGeometry x="1979" y="1023.5" width="60" height="30" as="geometry" />
        </mxCell>
        <mxCell id="XTAPi4LdTYdcreZ4F3mr-51" value="&lt;b&gt;Trigger&lt;/b&gt;" style="text;html=1;align=center;verticalAlign=middle;resizable=0;points=[];autosize=1;strokeColor=none;fillColor=none;fontSize=14;" parent="1" vertex="1">
          <mxGeometry x="1675" y="955" width="70" height="30" as="geometry" />
        </mxCell>
        <mxCell id="XTAPi4LdTYdcreZ4F3mr-52" value="&lt;b&gt;API Gateaway&lt;br&gt;&lt;/b&gt;" style="text;html=1;strokeColor=none;fillColor=none;align=center;verticalAlign=middle;whiteSpace=wrap;rounded=0;fontSize=14;" parent="1" vertex="1">
          <mxGeometry x="1050" y="1040" width="60" height="30" as="geometry" />
        </mxCell>
        <mxCell id="XTAPi4LdTYdcreZ4F3mr-61" style="edgeStyle=orthogonalEdgeStyle;rounded=0;orthogonalLoop=1;jettySize=auto;html=1;entryX=0;entryY=0.5;entryDx=0;entryDy=0;entryPerimeter=0;fontSize=14;" parent="1" source="XTAPi4LdTYdcreZ4F3mr-56" target="XTAPi4LdTYdcreZ4F3mr-1" edge="1">
          <mxGeometry relative="1" as="geometry" />
        </mxCell>
        <mxCell id="XTAPi4LdTYdcreZ4F3mr-56" value="&lt;b&gt;&lt;font style=&quot;font-size: 14px;&quot;&gt;Interernet&lt;/font&gt;&lt;/b&gt;" style="sketch=0;outlineConnect=0;fontColor=#232F3E;gradientColor=none;strokeColor=#232F3E;fillColor=#ffffff;dashed=0;verticalLabelPosition=bottom;verticalAlign=top;align=center;html=1;fontSize=12;fontStyle=0;aspect=fixed;shape=mxgraph.aws4.resourceIcon;resIcon=mxgraph.aws4.internet_alt2;" parent="1" vertex="1">
          <mxGeometry x="820" y="959" width="60" height="60" as="geometry" />
        </mxCell>
        <mxCell id="M6G5RoZs1-UaxuztppJ4-1" value="Api Service" style="swimlane;whiteSpace=wrap;html=1;fillColor=#fff2cc;strokeColor=#d6b656;" vertex="1" parent="1">
          <mxGeometry x="870" y="1940" width="520" height="300" as="geometry" />
        </mxCell>
        <mxCell id="M6G5RoZs1-UaxuztppJ4-4" value="&lt;b&gt;&lt;font style=&quot;font-size: 14px;&quot;&gt;Send Message&lt;br&gt;Lambda&lt;/font&gt;&lt;/b&gt;" style="rounded=1;whiteSpace=wrap;html=1;fillColor=#d5e8d4;strokeColor=#82b366;" vertex="1" parent="M6G5RoZs1-UaxuztppJ4-1">
          <mxGeometry x="50" y="70" width="162" height="160" as="geometry" />
        </mxCell>
        <mxCell id="M6G5RoZs1-UaxuztppJ4-5" value="&lt;b&gt;&lt;font style=&quot;font-size: 14px;&quot;&gt;Sender Worker Lambda&lt;/font&gt;&lt;/b&gt;" style="rounded=1;whiteSpace=wrap;html=1;fillColor=#dae8fc;strokeColor=#6c8ebf;" vertex="1" parent="M6G5RoZs1-UaxuztppJ4-1">
          <mxGeometry x="330" y="70" width="150" height="160" as="geometry" />
        </mxCell>
        <mxCell id="M6G5RoZs1-UaxuztppJ4-6" value="" style="endArrow=classic;html=1;rounded=0;exitX=1;exitY=0.5;exitDx=0;exitDy=0;entryX=0;entryY=0.5;entryDx=0;entryDy=0;" edge="1" parent="M6G5RoZs1-UaxuztppJ4-1" source="M6G5RoZs1-UaxuztppJ4-4" target="M6G5RoZs1-UaxuztppJ4-5">
          <mxGeometry relative="1" as="geometry">
            <mxPoint x="305" y="159.32999999999993" as="sourcePoint" />
            <mxPoint x="465" y="159.32999999999993" as="targetPoint" />
          </mxGeometry>
        </mxCell>
        <mxCell id="M6G5RoZs1-UaxuztppJ4-7" value="&lt;b&gt;&lt;font style=&quot;font-size: 16px;&quot;&gt;SQS&lt;/font&gt;&lt;/b&gt;" style="edgeLabel;resizable=0;html=1;align=center;verticalAlign=middle;" connectable="0" vertex="1" parent="M6G5RoZs1-UaxuztppJ4-6">
          <mxGeometry relative="1" as="geometry" />
        </mxCell>
        <mxCell id="M6G5RoZs1-UaxuztppJ4-9" value="Message Service" style="swimlane;whiteSpace=wrap;html=1;fillColor=#008a00;strokeColor=#005700;fontColor=#ffffff;" vertex="1" parent="1">
          <mxGeometry x="1856" y="1940" width="724" height="300" as="geometry" />
        </mxCell>
        <mxCell id="M6G5RoZs1-UaxuztppJ4-23" value="handler" style="swimlane;whiteSpace=wrap;html=1;fillColor=#e3c800;fontColor=#000000;strokeColor=#B09500;" vertex="1" parent="M6G5RoZs1-UaxuztppJ4-9">
          <mxGeometry x="49" y="60" width="241" height="200" as="geometry" />
        </mxCell>
        <mxCell id="M6G5RoZs1-UaxuztppJ4-35" value="&lt;h1&gt;Resolver router&lt;/h1&gt;&lt;p&gt;Get resolver name and route to target resolver to complete some process.&lt;/p&gt;&lt;p&gt;&lt;br&gt;&lt;/p&gt;" style="text;html=1;strokeColor=none;fillColor=none;spacing=5;spacingTop=-20;whiteSpace=wrap;overflow=hidden;rounded=0;" vertex="1" parent="M6G5RoZs1-UaxuztppJ4-23">
          <mxGeometry x="25.5" y="60" width="190" height="120" as="geometry" />
        </mxCell>
        <mxCell id="M6G5RoZs1-UaxuztppJ4-26" value="Router" style="shape=singleArrow;whiteSpace=wrap;html=1;arrowWidth=0.4;arrowSize=0.4;fillColor=#bac8d3;strokeColor=#23445d;" vertex="1" parent="M6G5RoZs1-UaxuztppJ4-9">
          <mxGeometry x="320" y="130" width="140" height="60" as="geometry" />
        </mxCell>
        <mxCell id="M6G5RoZs1-UaxuztppJ4-28" value="resolvers" style="swimlane;whiteSpace=wrap;html=1;fillColor=#6d8764;fontColor=#ffffff;strokeColor=#3A5431;" vertex="1" parent="M6G5RoZs1-UaxuztppJ4-9">
          <mxGeometry x="480" y="60" width="200" height="200" as="geometry" />
        </mxCell>
        <mxCell id="M6G5RoZs1-UaxuztppJ4-29" value="Save Message" style="ellipse;whiteSpace=wrap;html=1;fillColor=#fad7ac;strokeColor=#b46504;" vertex="1" parent="M6G5RoZs1-UaxuztppJ4-28">
          <mxGeometry x="20" y="30" width="80" height="80" as="geometry" />
        </mxCell>
        <mxCell id="M6G5RoZs1-UaxuztppJ4-30" value="Update Message" style="ellipse;whiteSpace=wrap;html=1;fillColor=#b1ddf0;strokeColor=#10739e;" vertex="1" parent="M6G5RoZs1-UaxuztppJ4-28">
          <mxGeometry x="100" y="110" width="80" height="80" as="geometry" />
        </mxCell>
        <mxCell id="M6G5RoZs1-UaxuztppJ4-14" value="" style="shape=flexArrow;endArrow=classic;html=1;rounded=0;exitX=1;exitY=0.5;exitDx=0;exitDy=0;entryX=0;entryY=0.5;entryDx=0;entryDy=0;" edge="1" parent="1" source="M6G5RoZs1-UaxuztppJ4-1" target="M6G5RoZs1-UaxuztppJ4-9">
          <mxGeometry width="50" height="50" relative="1" as="geometry">
            <mxPoint x="1549" y="2220" as="sourcePoint" />
            <mxPoint x="1539" y="2100" as="targetPoint" />
          </mxGeometry>
        </mxCell>
        <mxCell id="M6G5RoZs1-UaxuztppJ4-15" value="&lt;b&gt;&lt;font style=&quot;font-size: 14px;&quot;&gt;FnService&lt;/font&gt;&lt;/b&gt;" style="text;html=1;strokeColor=#b85450;fillColor=#f8cecc;align=center;verticalAlign=middle;whiteSpace=wrap;rounded=0;" vertex="1" parent="1">
          <mxGeometry x="1560" y="2040" width="130" height="40" as="geometry" />
        </mxCell>
        <mxCell id="M6G5RoZs1-UaxuztppJ4-21" style="edgeStyle=orthogonalEdgeStyle;rounded=0;orthogonalLoop=1;jettySize=auto;html=1;entryX=0.5;entryY=0;entryDx=0;entryDy=0;" edge="1" parent="1" source="M6G5RoZs1-UaxuztppJ4-19" target="M6G5RoZs1-UaxuztppJ4-15">
          <mxGeometry relative="1" as="geometry" />
        </mxCell>
        <mxCell id="M6G5RoZs1-UaxuztppJ4-19" value="&lt;h1&gt;Invoke Lambda&lt;/h1&gt;&lt;p&gt;&lt;font style=&quot;font-size: 14px;&quot;&gt;&lt;b&gt;For the internal communication. Pass a data from a lambda function to the another lambda function by invoking lambda. Not any http calling.&lt;/b&gt;&lt;/font&gt;&lt;/p&gt;&lt;div style=&quot;color: rgb(212, 212, 212); background-color: rgb(43, 43, 43); font-family: Menlo, Monaco, &amp;quot;Courier New&amp;quot;, monospace; font-size: 14px; line-height: 21px;&quot;&gt;&lt;div&gt;client.Invoke(ctx, &lt;span style=&quot;color: #a9b7c6;font-weight: bold;&quot;&gt;&amp;amp;&lt;/span&gt;lambda.InvokeInput{&lt;/div&gt;&lt;div&gt;        FunctionName: aws.&lt;span style=&quot;color: #ffc66d;&quot;&gt;String&lt;/span&gt;(fnName),&lt;/div&gt;&lt;div&gt;        Payload: jb,&lt;/div&gt;&lt;div&gt;    })&lt;/div&gt;&lt;/div&gt;&lt;p&gt;&lt;br&gt;&lt;/p&gt;" style="text;html=1;strokeColor=#d6b656;fillColor=#fff2cc;spacing=5;spacingTop=-20;whiteSpace=wrap;overflow=hidden;rounded=0;" vertex="1" parent="1">
          <mxGeometry x="1465" y="1710" width="320" height="240" as="geometry" />
        </mxCell>
        <mxCell id="M6G5RoZs1-UaxuztppJ4-36" value="&lt;b&gt;&lt;i&gt;&lt;font style=&quot;font-size: 18px;&quot;&gt;Diagram for Message Service&lt;/font&gt;&lt;/i&gt;&lt;/b&gt;" style="text;html=1;strokeColor=#005700;fillColor=#008a00;align=center;verticalAlign=middle;whiteSpace=wrap;rounded=0;fontColor=#ffffff;" vertex="1" parent="1">
          <mxGeometry x="810" y="750" width="300" height="50" as="geometry" />
        </mxCell>
        <mxCell id="M6G5RoZs1-UaxuztppJ4-38" value="&lt;b&gt;&lt;i&gt;&lt;font style=&quot;font-size: 18px;&quot;&gt;Project structure for Message Service&lt;/font&gt;&lt;/i&gt;&lt;/b&gt;" style="text;html=1;strokeColor=#005700;fillColor=#008a00;align=center;verticalAlign=middle;whiteSpace=wrap;rounded=0;fontColor=#ffffff;" vertex="1" parent="1">
          <mxGeometry x="870" y="1720" width="390" height="50" as="geometry" />
        </mxCell>
      </root>
    </mxGraphModel>
  </diagram>
</mxfile>
